PathFileType	4	(X/Y/Z)	/Users/mathieubourgeois/Desktop/Analyse/Traitement/Sujet_01/Transformed_Static_Sujet_01_Tpose.trc
DataRate	CameraRate	NumFrames	NumMarkers	Units	OrigDataRate	OrigDataStartFrame	OrigNumFrames
120.000000	120.000000	4	35	mm	120.000000	169	226
Frame#	Time	LFHD			RFHD			LBHD			RBHD			RSHO			LSHO			CLAV			STRN			T10			RHUM			LHUM			LRAD			RRAD			RWRA			RWRB			RCAR			LCAR			LWRA			LWRB			RFWT			LFWT			LBWT			RBWT			RKNI			LKNI			RKNE			LKNE			RANE			RANI			LANI			LANE			LHEE			RHEE			RTOE			LTOE			
		X1	Y1	Z1	X2	Y2	Z2	X3	Y3	Z3	X4	Y4	Z4	X5	Y5	Z5	X6	Y6	Z6	X7	Y7	Z7	X8	Y8	Z8	X9	Y9	Z9	X10	Y10	Z10	X11	Y11	Z11	X12	Y12	Z12	X13	Y13	Z13	X14	Y14	Z14	X15	Y15	Z15	X16	Y16	Z16	X17	Y17	Z17	X18	Y18	Z18	X19	Y19	Z19	X20	Y20	Z20	X21	Y21	Z21	X22	Y22	Z22	X23	Y23	Z23	X24	Y24	Z24	X25	Y25	Z25	X26	Y26	Z26	X27	Y27	Z27	X28	Y28	Z28	X29	Y29	Z29	X30	Y30	Z30	X31	Y31	Z31	X32	Y32	Z32	X33	Y33	Z33	X34	Y34	Z34	X35	Y35	Z35	

170	1.408333333333333	5.522856235504134	1568.130615234375	140.1484832763671	26.55416297912594	1555.093872070312	263.5233764648436	-147.7700500488282	1567.433959960938	163.6941680908202	-121.5758056640625	1553.904052734375	295.3781127929686	-114.2571868896485	1407.783325195312	347.8555297851561	-140.6694030761719	1399.99267578125	99.67630004882803	-55.0164260864258	1364.218872070312	196.0915222167968	-14.73090362548831	1263.5810546875	206.2027130126952	-222.4859924316407	1211.645874023438	240.126495361328	-97.65814971923835	1229.991088867188	588.8436279296874	-130.3650512695312	1241.831420898438	-158.6046142578126	-176.1803283691406	1279.846557617188	-176.7723846435548	-149.1584777832032	1265.743774414062	604.9099121093749	-154.4749603271486	1273.643432617188	827.0455932617186	-148.0416107177736	1212.605590820312	821.8209228515624	-195.5072631835939	1206.266845703125	901.2711791992186	-214.6184387207031	1237.535034179688	-473.7942504882813	-172.6410369873046	1289.242065429688	-400.1182250976563	-180.880874633789	1223.443969726562	-391.0060729980469	-38.27622222900395	930.21337890625	343.1032714843749	-42.91127395629884	943.0725708007812	116.8495712280273	-226.3422241210938	946.7622680664062	184.9067840576171	-218.1505432128907	956.0139770507812	301.9664306640624	-178.1046600341797	435.3984375	272.9273986816406	-147.8316650390625	473.8504333496094	213.4621429443359	-159.5614166259766	470.4869995117188	389.8163146972656	-167.1952972412109	458.9671325683594	85.8671493530273	-189.009750366211	120.8496475219727	379.2129821777344	-175.2365417480469	123.8478927612305	300.7168579101562	-178.3089904785157	124.1183395385742	190.36083984375	-193.7429351806641	113.3581314086914	115.5458297729492	-251.7793884277344	64.10984039306642	163.3274383544922	-248.7984161376953	75.20719146728517	345.2772827148437	-1.57985889911656	61.57457733154299	354.8079833984375	0.7921537160873252	56.66434478759766	131.5853576660156	
171	1.416666666666667	5.516672611236555	1568.12646484375	140.1195831298827	26.54669380187985	1555.095581054688	263.5020141601561	-147.7859497070313	1567.410522460938	163.6533966064452	-121.6220703125	1553.910034179688	295.3336791992186	-114.2572174072266	1407.771118164062	347.8561706542968	-140.6754302978516	1399.97607421875	99.68323516845693	-55.01694107055666	1364.204833984375	196.0949707031249	-14.70275115966799	1263.588989257812	206.2084045410155	-222.452865600586	1211.62744140625	240.1206970214843	-97.60975646972663	1229.894653320312	588.7912597656249	-130.2248077392578	1241.798461914062	-158.6004180908204	-176.0509643554687	1279.789672851562	-176.7817993164064	-149.093963623047	1265.670043945312	604.8753662109374	-154.3582763671876	1273.471435546875	827.0117797851561	-147.9583740234376	1212.451293945312	821.7761230468749	-195.3475036621095	1206.060302734375	901.2280273437499	-214.409439086914	1237.411254882812	-473.8223876953126	-172.4766845703124	1289.17919921875	-400.1216735839844	-179.7580566406249	1223.041137695312	-391.5867309570313	-38.21672821044926	930.2244873046875	343.1330566406249	-42.82441711425783	943.0818481445312	116.8464889526367	-226.2677612304688	946.7388916015625	184.8983459472655	-218.0727233886719	955.9841918945312	301.9511718749999	-178.0706634521485	435.3931274414062	272.9301147460938	-147.76611328125	473.8679504394531	213.4691009521484	-159.4879608154297	470.4813842773438	389.8046874999999	-167.1546173095703	458.966552734375	85.86717987060543	-189.0202789306641	120.8630752563477	379.2328186035156	-175.2467498779297	123.8576736450195	300.710693359375	-178.2959899902344	124.1212539672852	190.3755340576172	-193.7336273193359	113.3533706665039	115.5446853637695	-251.7713928222657	64.11499786376955	163.3397827148437	-248.7912292480469	75.1977996826172	345.2635803222656	-1.576939940452619	61.56822586059572	354.8044128417969	0.7966800928115684	56.6540870666504	131.5823516845703	
172	1.425	5.519330024719221	1568.121704101562	140.082550048828	26.5279560089111	1555.087280273438	263.4747924804686	-147.7874450683594	1567.431030273438	163.6094512939452	-121.6397323608399	1553.908569335938	295.2961425781249	-114.2295684814454	1407.747192382812	347.8519592285155	-140.6654357910156	1399.954833984375	99.68631744384756	-54.98724746704104	1364.2041015625	196.0675201416015	-14.66392230987551	1263.578369140625	206.2111663818359	-222.4136352539063	1211.599975585938	240.1072540283202	-97.5311584472657	1229.001708984375	588.7816772460936	-130.0963439941406	1241.7685546875	-158.5951690673829	-175.9401092529297	1279.728271484375	-176.7890472412111	-149.2170410156251	1265.248413085938	604.9229125976561	-154.2601776123048	1273.307739257812	826.9751586914061	-147.8590240478517	1212.27294921875	821.7265624999999	-195.2330932617189	1205.859741210938	901.1890869140624	-214.1636810302734	1237.281372070312	-473.8396911621094	-172.3032073974609	1289.084838867188	-400.1410522460938	-179.5399780273437	1222.949462890625	-391.5810852050782	-38.15586853027348	930.2243041992188	343.1461486816406	-42.74414825439455	943.0902709960938	116.8586044311523	-226.1773071289063	946.7105102539062	184.8846282958984	-217.9988098144532	955.962158203125	301.9437255859374	-178.0495910644532	435.3941345214844	272.9328918457031	-147.721176147461	473.8489990234375	213.4696350097656	-159.4406433105469	470.4762268066406	389.8016967773437	-167.0983276367188	458.9649963378906	85.86083221435543	-189.0127868652344	120.8686065673828	379.2274475097656	-175.2440490722657	123.8488235473633	300.7136840820312	-178.3148956298828	124.1211547851563	190.3743743896484	-193.716796875	113.3518905639648	115.5285034179687	-251.780258178711	64.10460662841798	163.318130493164	-248.7896270751953	75.18917846679689	345.2722473144531	-1.584976434707685	61.57293701171877	354.8086547851562	0.793154478073104	56.6567497253418	131.5848846435547	
173	1.433333333333333	5.517361164093001	1568.10400390625	140.0715179443359	26.49530029296872	1555.09130859375	263.4699096679686	-147.7954406738282	1567.406494140625	163.5640869140624	-121.6557006835938	1553.914428710938	295.2567749023436	-114.2122421264649	1407.736938476562	347.8497009277343	-140.6485443115234	1399.9267578125	99.67343139648428	-54.97088623046877	1364.199096679688	196.0860748291015	-14.64789867401126	1263.561401367188	206.2120056152343	-222.3860015869141	1211.570190429688	240.1003875732421	-97.46109771728523	1228.881591796875	588.7214965820311	-129.9795227050781	1241.72509765625	-158.5800781250001	-175.8309020996093	1279.662231445312	-176.7904357910157	-149.1425323486329	1265.1337890625	604.8729248046874	-154.1546630859376	1273.142456054688	826.9515380859374	-147.770233154297	1212.0927734375	821.6702880859374	-195.0743713378907	1205.631103515625	901.1450805664061	-213.8950042724609	1237.146484375	-473.8601989746094	-172.1224212646484	1288.990478515625	-400.1446838378907	-179.3687591552734	1222.882446289062	-391.5430297851563	-38.10857772827153	930.2281494140625	343.1611022949218	-42.66628646850587	943.1010131835938	116.8557510375976	-226.0949401855469	946.687744140625	184.8645477294921	-217.9588165283203	955.9303588867188	301.9442443847656	-177.997055053711	435.3829650878906	272.9380493164062	-147.665771484375	473.8391418457031	213.4776000976562	-159.4027862548829	470.4728393554688	389.8108520507812	-167.0358734130859	458.9532775878906	85.86681365966793	-189.0271301269532	120.854736328125	379.2328796386719	-175.2364959716797	123.845329284668	300.714599609375	-178.2962951660157	124.1166305541992	190.3866577148437	-193.7299652099609	113.355827331543	115.5342407226562	-251.7772216796875	64.10931396484376	163.3240356445312	-248.793441772461	75.19863891601564	345.2736206054687	-1.582121133804365	61.55841064453127	354.804443359375	0.8108366727828819	56.64271926879884	131.5877532958984	
